<svg xmlns="http://www.w3.org/2000/svg" width="0" height="0" style="position:absolute">
  <defs>
    <symbol id="kate" viewBox="0 0 24 24"><g stroke="#009FE3" stroke-width="1.8" stroke-linecap="round" fill="none"><path d="M9 7.5h6M6 10.5h12M6 13.5h12M9 16.5h6"/></g><circle cx="12" cy="12" r="1.4" fill="#009FE3"/></symbol>
    <symbol id="shield" viewBox="0 0 24 24"><path d="M12 2.8 4.5 5.6v6c0 4.6 3.2 8.4 7.5 9.6 4.3-1.2 7.5-5 7.5-9.6v-6L12 2.8Z" fill="none" stroke="currentColor" stroke-width="1.5" stroke-linejoin="round"/><path d="m8.8 12 2.2 2.2 4.3-4.4" fill="none" stroke="currentColor" stroke-width="1.6" stroke-linecap="round" stroke-linejoin="round"/></symbol>
    <symbol id="ok" viewBox="0 0 24 24"><path d="m6 12.5 4 4 8-9" fill="none" stroke="#1E9C6E" stroke-width="2.4" stroke-linecap="round" stroke-linejoin="round"/></symbol>
    <symbol id="back" viewBox="0 0 24 24"><path d="M20 12H4m6-6-6 6 6 6" fill="none" stroke="currentColor" stroke-width="1.8" stroke-linecap="round" stroke-linejoin="round"/></symbol>
    <symbol id="forward" viewBox="0 0 24 24"><path d="M4 12h16m-6-6 6 6-6 6" fill="none" stroke="currentColor" stroke-width="1.8" stroke-linecap="round" stroke-linejoin="round"/></symbol>
    <symbol id="close" viewBox="0 0 24 24"><path d="M5 5l14 14M19 5 5 19" fill="none" stroke="currentColor" stroke-width="1.8" stroke-linecap="round"/></symbol>
    <symbol id="key" viewBox="0 0 24 24"><g fill="none" stroke="#009FE3" stroke-width="1.5" stroke-linecap="round" stroke-linejoin="round"><circle cx="8" cy="15" r="4"/><path d="m11 12 8-8m-3 3 2 2m-4 0 1.5 1.5"/></g></symbol>
    <symbol id="phone" viewBox="0 0 24 24"><g fill="none" stroke="#009FE3" stroke-width="1.5" stroke-linecap="round"><rect x="6.5" y="2.5" width="11" height="19" rx="2.5"/><path d="M10.5 18.5h3"/></g></symbol>
    <symbol id="cart" viewBox="0 0 24 24"><g fill="none" stroke="#009FE3" stroke-width="1.5" stroke-linecap="round" stroke-linejoin="round"><path d="M3 4h2.5l2.2 10.5h10l2-7.5H6.4"/><circle cx="9" cy="19" r="1.4"/><circle cx="17" cy="19" r="1.4"/></g></symbol>
    <symbol id="people" viewBox="0 0 24 24"><g fill="none" stroke="#009FE3" stroke-width="1.5" stroke-linecap="round"><circle cx="9" cy="8" r="3"/><path d="M3.5 19c.6-3.2 2.8-5 5.5-5s4.9 1.8 5.5 5"/><circle cx="17" cy="9" r="2.3"/><path d="M15.6 14.2c2.3-.4 4.3 1 4.9 3.8"/></g></symbol>
    <symbol id="mail" viewBox="0 0 24 24"><g fill="none" stroke="#009FE3" stroke-width="1.5" stroke-linejoin="round"><rect x="3" y="5.5" width="18" height="13" rx="2"/><path d="m3.5 6.5 8.5 6.5 8.5-6.5"/></g></symbol>
    <symbol id="wifi" viewBox="0 0 24 24"><g fill="none" stroke="#009FE3" stroke-width="1.5" stroke-linecap="round"><path d="M3 9.5a13 13 0 0 1 18 0M6 13a8.5 8.5 0 0 1 12 0M9 16.4a4 4 0 0 1 6 0"/><circle cx="12" cy="19.5" r=".8" fill="#009FE3"/></g></symbol>
    <symbol id="lock" viewBox="0 0 24 24"><g fill="none" stroke="currentColor" stroke-width="1.5"><rect x="5" y="10.5" width="14" height="10" rx="2"/><path d="M8 10.5V7.5a4 4 0 0 1 8 0v3"/></g></symbol>
    <symbol id="id" viewBox="0 0 24 24"><g fill="none" stroke="#009FE3" stroke-width="1.5" stroke-linecap="round"><rect x="3" y="5" width="18" height="14" rx="2"/><circle cx="9" cy="11" r="2.2"/><path d="M5.8 16c.6-1.6 1.8-2.4 3.2-2.4s2.6.8 3.2 2.4M14.5 10h4M14.5 13.5h3"/></g></symbol>
    <symbol id="cloud" viewBox="0 0 24 24"><g fill="none" stroke="#009FE3" stroke-width="1.5" stroke-linecap="round" stroke-linejoin="round"><path d="M7 18.5a4.5 4.5 0 0 1-.4-9A6 6 0 0 1 18 10a4.3 4.3 0 0 1-.5 8.5Z"/><path d="M12 11v5m-2-2 2 2 2-2"/></g></symbol>
    <symbol id="chat" viewBox="0 0 24 24"><g fill="none" stroke="#009FE3" stroke-width="1.5" stroke-linejoin="round"><path d="M4 5.5h16v10H10l-4 3.5v-3.5H4Z"/><path d="M8.5 10.5h7" stroke-linecap="round"/></g></symbol>
    <symbol id="info" viewBox="0 0 24 24"><g fill="none" stroke="currentColor" stroke-width="1.6" stroke-linecap="round"><circle cx="12" cy="12" r="9"/><path d="M12 11v5.5M12 7.8v.1"/></g></symbol>
    <symbol id="wallet" viewBox="0 0 24 24"><g fill="none" stroke="currentColor" stroke-width="1.5" stroke-linejoin="round"><path d="M4 7.5h14.5a1.5 1.5 0 0 1 1.5 1.5v9a1.5 1.5 0 0 1-1.5 1.5H5.5A1.5 1.5 0 0 1 4 18V6.5A1.5 1.5 0 0 1 5.5 5H16"/><path d="M16 12.5h4v3h-4a1.5 1.5 0 0 1 0-3Z"/></g></symbol>
    <symbol id="list" viewBox="0 0 24 24"><g stroke="currentColor" stroke-width="1.8" stroke-linecap="round"><path d="M9 6h11M9 12h11M9 18h11M4.5 6h.1M4.5 12h.1M4.5 18h.1"/></g></symbol>
    <symbol id="pig" viewBox="0 0 24 24"><g fill="none" stroke="currentColor" stroke-width="1.5" stroke-linejoin="round"><path d="M5 11c0-3.3 3.1-5.5 7-5.5 1.2 0 2.3.2 3.3.6L18 4.5v3.2c.8.7 1.4 1.6 1.7 2.6H21v3.4h-1.6a6 6 0 0 1-2.4 2.8V19h-2.5v-1.8a9.6 9.6 0 0 1-3.8 0V19H8.2v-2.4A5.7 5.7 0 0 1 5 11Z"/></g></symbol>
    <symbol id="layers" viewBox="0 0 24 24"><g fill="none" stroke="currentColor" stroke-width="1.5" stroke-linejoin="round"><path d="m12 4 9 4.5-9 4.5-9-4.5Z"/><path d="m3 12.5 9 4.5 9-4.5M3 16.5 12 21l9-4.5"/></g></symbol>
    <symbol id="bell" viewBox="0 0 24 24"><g fill="none" stroke="#009FE3" stroke-width="1.6" stroke-linecap="round" stroke-linejoin="round"><path d="M6 16.5V11a6 6 0 0 1 12 0v5.5l1.5 1.5h-15Z"/><path d="M10 20.5a2 2 0 0 0 4 0"/></g></symbol>
    <symbol id="arrows" viewBox="0 0 24 24"><g fill="none" stroke="#fff" stroke-width="2" stroke-linecap="round" stroke-linejoin="round"><path d="M5 9h14l-4-4M19 15H5l4 4"/></g></symbol>
    <symbol id="mic" viewBox="0 0 24 24"><rect x="9" y="3" width="6" height="11" rx="3" fill="#fff"/><path d="M6 11a6 6 0 0 0 12 0M12 17v3" fill="none" stroke="#fff" stroke-width="1.6" stroke-linecap="round"/></symbol>
    <symbol id="status" viewBox="0 0 64 14"><g fill="#111"><rect x="0" y="8" width="3" height="5" rx="1"/><rect x="5" y="6" width="3" height="7" rx="1"/><rect x="10" y="3.5" width="3" height="9.5" rx="1"/><rect x="15" y="1" width="3" height="12" rx="1"/><path d="M28 12.5 25 9.3a4.3 4.3 0 0 1 6 0Zm-5.2-5.3a7.4 7.4 0 0 1 10.4 0l1.4-1.5a9.5 9.5 0 0 0-13.2 0Z"/><rect x="39" y="1.5" width="22" height="11" rx="3" fill="none" stroke="#111" stroke-width="1.2"/><rect x="41" y="3.5" width="18" height="7" rx="1.5"/></g></symbol>
  </defs>
</svg>
